<mxfile host="app.diagrams.net" agent="Mozilla/5.0 (Windows NT 10.0; Win64; x64) AppleWebKit/537.36 (KHTML, like Gecko) Chrome/137.0.0.0 Safari/537.36 Edg/137.0.0.0" version="27.0.9">
  <diagram name="Page-1" id="YzbKd9JQZFOpudnFDwKt">
    <mxGraphModel dx="2191" dy="1273" grid="1" gridSize="10" guides="1" tooltips="1" connect="1" arrows="1" fold="1" page="1" pageScale="1" pageWidth="850" pageHeight="1100" math="0" shadow="0">
      <root>
        <mxCell id="0" />
        <mxCell id="1" parent="0" />
        <mxCell id="b5PGIRSptxfvXviJMNQf-1" value="" style="rounded=0;whiteSpace=wrap;html=1;fillColor=none;" vertex="1" parent="1">
          <mxGeometry x="80" y="1050" width="1020" height="380" as="geometry" />
        </mxCell>
        <mxCell id="b5PGIRSptxfvXviJMNQf-2" value="" style="endArrow=none;html=1;rounded=0;dashed=1;fillColor=#a20025;strokeColor=#6F0000;" edge="1" parent="1" source="b5PGIRSptxfvXviJMNQf-76">
          <mxGeometry width="50" height="50" relative="1" as="geometry">
            <mxPoint x="430" y="650.888916015625" as="sourcePoint" />
            <mxPoint x="429.75" y="70" as="targetPoint" />
          </mxGeometry>
        </mxCell>
        <mxCell id="b5PGIRSptxfvXviJMNQf-3" value="User" style="rounded=0;whiteSpace=wrap;html=1;" vertex="1" parent="1">
          <mxGeometry x="40" y="40" width="90" height="30" as="geometry" />
        </mxCell>
        <mxCell id="b5PGIRSptxfvXviJMNQf-4" value="Air New zealand booking system" style="rounded=0;whiteSpace=wrap;html=1;" vertex="1" parent="1">
          <mxGeometry x="340" y="40" width="180" height="30" as="geometry" />
        </mxCell>
        <mxCell id="b5PGIRSptxfvXviJMNQf-5" value="Authenticator Application" style="rounded=0;whiteSpace=wrap;html=1;" vertex="1" parent="1">
          <mxGeometry x="620" y="40" width="180" height="30" as="geometry" />
        </mxCell>
        <mxCell id="b5PGIRSptxfvXviJMNQf-6" value="" style="endArrow=classic;html=1;rounded=0;" edge="1" parent="1" source="b5PGIRSptxfvXviJMNQf-30">
          <mxGeometry width="50" height="50" relative="1" as="geometry">
            <mxPoint x="85" y="129.5" as="sourcePoint" />
            <mxPoint x="420" y="128" as="targetPoint" />
          </mxGeometry>
        </mxCell>
        <mxCell id="b5PGIRSptxfvXviJMNQf-7" value="" style="rounded=0;whiteSpace=wrap;html=1;fillColor=#a20025;fontColor=#ffffff;strokeColor=#6F0000;gradientColor=none;" vertex="1" parent="1">
          <mxGeometry x="422.5" y="110" width="15" height="40" as="geometry" />
        </mxCell>
        <mxCell id="b5PGIRSptxfvXviJMNQf-8" value="" style="endArrow=none;html=1;rounded=0;dashed=1;" edge="1" parent="1" source="b5PGIRSptxfvXviJMNQf-33">
          <mxGeometry width="50" height="50" relative="1" as="geometry">
            <mxPoint x="85" y="650" as="sourcePoint" />
            <mxPoint x="84.5" y="70" as="targetPoint" />
          </mxGeometry>
        </mxCell>
        <mxCell id="b5PGIRSptxfvXviJMNQf-9" value="Open Booking website" style="text;strokeColor=none;align=center;fillColor=none;html=1;verticalAlign=middle;whiteSpace=wrap;rounded=0;" vertex="1" parent="1">
          <mxGeometry x="190" y="100" width="130" height="30" as="geometry" />
        </mxCell>
        <mxCell id="b5PGIRSptxfvXviJMNQf-10" value="" style="endArrow=none;html=1;rounded=0;dashed=1;fillColor=#60a917;strokeColor=#2D7600;" edge="1" parent="1">
          <mxGeometry width="50" height="50" relative="1" as="geometry">
            <mxPoint x="710.1" y="650" as="sourcePoint" />
            <mxPoint x="709.6" y="70" as="targetPoint" />
          </mxGeometry>
        </mxCell>
        <mxCell id="b5PGIRSptxfvXviJMNQf-11" value="" style="endArrow=classic;html=1;rounded=0;entryX=0.119;entryY=0.026;entryDx=0;entryDy=0;entryPerimeter=0;exitX=1;exitY=0.5;exitDx=0;exitDy=0;" edge="1" parent="1">
          <mxGeometry width="50" height="50" relative="1" as="geometry">
            <mxPoint x="437.5" y="143" as="sourcePoint" />
            <mxPoint x="702.5049999999999" y="142.62" as="targetPoint" />
          </mxGeometry>
        </mxCell>
        <mxCell id="b5PGIRSptxfvXviJMNQf-12" value="Request login Interface" style="text;strokeColor=none;align=center;fillColor=none;html=1;verticalAlign=middle;whiteSpace=wrap;rounded=0;" vertex="1" parent="1">
          <mxGeometry x="508.22" y="113" width="130" height="30" as="geometry" />
        </mxCell>
        <mxCell id="b5PGIRSptxfvXviJMNQf-13" value="" style="endArrow=classic;html=1;rounded=0;entryX=1.2;entryY=0.485;entryDx=0;entryDy=0;entryPerimeter=0;" edge="1" parent="1" target="b5PGIRSptxfvXviJMNQf-31">
          <mxGeometry width="50" height="50" relative="1" as="geometry">
            <mxPoint x="710" y="220" as="sourcePoint" />
            <mxPoint x="90" y="220" as="targetPoint" />
          </mxGeometry>
        </mxCell>
        <mxCell id="b5PGIRSptxfvXviJMNQf-14" value="Display login screen" style="text;strokeColor=none;align=center;fillColor=none;html=1;verticalAlign=middle;whiteSpace=wrap;rounded=0;" vertex="1" parent="1">
          <mxGeometry x="130" y="190" width="130" height="30" as="geometry" />
        </mxCell>
        <mxCell id="b5PGIRSptxfvXviJMNQf-15" value="" style="endArrow=classic;html=1;rounded=0;" edge="1" parent="1">
          <mxGeometry width="50" height="50" relative="1" as="geometry">
            <mxPoint x="82.5" y="270" as="sourcePoint" />
            <mxPoint x="702.5" y="270" as="targetPoint" />
          </mxGeometry>
        </mxCell>
        <mxCell id="b5PGIRSptxfvXviJMNQf-16" value="Enter Credentials" style="text;strokeColor=none;align=center;fillColor=none;html=1;verticalAlign=middle;whiteSpace=wrap;rounded=0;" vertex="1" parent="1">
          <mxGeometry x="120" y="240" width="130" height="30" as="geometry" />
        </mxCell>
        <mxCell id="b5PGIRSptxfvXviJMNQf-17" value="" style="endArrow=classic;html=1;rounded=0;startArrow=none;startFill=0;exitX=1.189;exitY=0.166;exitDx=0;exitDy=0;exitPerimeter=0;entryX=-0.1;entryY=0.407;entryDx=0;entryDy=0;entryPerimeter=0;endFill=1;" edge="1" parent="1">
          <mxGeometry width="50" height="50" relative="1" as="geometry">
            <mxPoint x="723.5550000000001" y="310.00000000000017" as="sourcePoint" />
            <mxPoint x="942.5000000000002" y="310.74000000000007" as="targetPoint" />
          </mxGeometry>
        </mxCell>
        <mxCell id="b5PGIRSptxfvXviJMNQf-18" value="Validate Credentials" style="text;strokeColor=none;align=center;fillColor=none;html=1;verticalAlign=middle;whiteSpace=wrap;rounded=0;" vertex="1" parent="1">
          <mxGeometry x="770" y="280" width="130" height="30" as="geometry" />
        </mxCell>
        <mxCell id="b5PGIRSptxfvXviJMNQf-19" value="" style="endArrow=none;html=1;rounded=0;exitX=1.052;exitY=0.88;exitDx=0;exitDy=0;exitPerimeter=0;startArrow=classic;startFill=1;" edge="1" parent="1">
          <mxGeometry width="50" height="50" relative="1" as="geometry">
            <mxPoint x="720" y="352.80000000000007" as="sourcePoint" />
            <mxPoint x="940" y="353" as="targetPoint" />
          </mxGeometry>
        </mxCell>
        <mxCell id="b5PGIRSptxfvXviJMNQf-20" value="Verify user permission" style="text;strokeColor=none;align=center;fillColor=none;html=1;verticalAlign=middle;whiteSpace=wrap;rounded=0;" vertex="1" parent="1">
          <mxGeometry x="772" y="323" width="130" height="30" as="geometry" />
        </mxCell>
        <mxCell id="b5PGIRSptxfvXviJMNQf-21" value="" style="rounded=0;whiteSpace=wrap;html=1;fillColor=#60a917;fontColor=#ffffff;strokeColor=#2D7600;" vertex="1" parent="1">
          <mxGeometry x="702.5" y="130" width="15" height="400" as="geometry" />
        </mxCell>
        <mxCell id="b5PGIRSptxfvXviJMNQf-22" value="" style="rounded=0;whiteSpace=wrap;html=1;fillColor=#a20025;fontColor=#ffffff;strokeColor=#6F0000;gradientColor=none;" vertex="1" parent="1">
          <mxGeometry x="422.5" y="390" width="15" height="70" as="geometry" />
        </mxCell>
        <mxCell id="b5PGIRSptxfvXviJMNQf-23" value="" style="endArrow=none;html=1;rounded=0;startArrow=classic;startFill=1;exitX=1.189;exitY=0.166;exitDx=0;exitDy=0;exitPerimeter=0;" edge="1" parent="1">
          <mxGeometry width="50" height="50" relative="1" as="geometry">
            <mxPoint x="437.5" y="400" as="sourcePoint" />
            <mxPoint x="701" y="400" as="targetPoint" />
          </mxGeometry>
        </mxCell>
        <mxCell id="b5PGIRSptxfvXviJMNQf-24" value="Login Successfull" style="text;strokeColor=none;align=center;fillColor=none;html=1;verticalAlign=middle;whiteSpace=wrap;rounded=0;" vertex="1" parent="1">
          <mxGeometry x="512.5" y="370" width="130" height="30" as="geometry" />
        </mxCell>
        <mxCell id="b5PGIRSptxfvXviJMNQf-25" value="" style="endArrow=classic;html=1;rounded=0;endFill=1;" edge="1" parent="1">
          <mxGeometry width="50" height="50" relative="1" as="geometry">
            <mxPoint x="440" y="420" as="sourcePoint" />
            <mxPoint x="440" y="450" as="targetPoint" />
            <Array as="points">
              <mxPoint x="500" y="420" />
              <mxPoint x="500" y="450" />
            </Array>
          </mxGeometry>
        </mxCell>
        <mxCell id="b5PGIRSptxfvXviJMNQf-26" value="Redirect to the booking dashboard" style="text;strokeColor=none;align=center;fillColor=none;html=1;verticalAlign=middle;whiteSpace=wrap;rounded=0;" vertex="1" parent="1">
          <mxGeometry x="510" y="420" width="130" height="30" as="geometry" />
        </mxCell>
        <mxCell id="b5PGIRSptxfvXviJMNQf-27" value="" style="endArrow=none;html=1;rounded=0;startArrow=classic;startFill=1;exitX=1.189;exitY=0.166;exitDx=0;exitDy=0;exitPerimeter=0;" edge="1" parent="1">
          <mxGeometry width="50" height="50" relative="1" as="geometry">
            <mxPoint x="440" y="510" as="sourcePoint" />
            <mxPoint x="700" y="510" as="targetPoint" />
          </mxGeometry>
        </mxCell>
        <mxCell id="b5PGIRSptxfvXviJMNQf-28" value="Login Rejected" style="text;strokeColor=none;align=center;fillColor=none;html=1;verticalAlign=middle;whiteSpace=wrap;rounded=0;" vertex="1" parent="1">
          <mxGeometry x="515" y="480" width="130" height="30" as="geometry" />
        </mxCell>
        <mxCell id="b5PGIRSptxfvXviJMNQf-29" value="" style="endArrow=classic;html=1;rounded=0;entryX=0.217;entryY=0.455;entryDx=0;entryDy=0;entryPerimeter=0;" edge="1" parent="1" target="b5PGIRSptxfvXviJMNQf-30">
          <mxGeometry width="50" height="50" relative="1" as="geometry">
            <mxPoint x="85" y="129.5" as="sourcePoint" />
            <mxPoint x="426" y="128" as="targetPoint" />
          </mxGeometry>
        </mxCell>
        <mxCell id="b5PGIRSptxfvXviJMNQf-30" value="" style="rounded=0;whiteSpace=wrap;html=1;fillColor=light-dark(#eeeeee, #f9f5f5);strokeColor=#36393d;" vertex="1" parent="1">
          <mxGeometry x="77.5" y="110" width="15" height="40" as="geometry" />
        </mxCell>
        <mxCell id="b5PGIRSptxfvXviJMNQf-31" value="" style="rounded=0;whiteSpace=wrap;html=1;fillColor=light-dark(#eeeeee, #f9f5f5);strokeColor=#36393d;" vertex="1" parent="1">
          <mxGeometry x="77.5" y="200" width="15" height="40" as="geometry" />
        </mxCell>
        <mxCell id="b5PGIRSptxfvXviJMNQf-32" value="" style="endArrow=none;html=1;rounded=0;dashed=1;" edge="1" parent="1" source="b5PGIRSptxfvXviJMNQf-35" target="b5PGIRSptxfvXviJMNQf-33">
          <mxGeometry width="50" height="50" relative="1" as="geometry">
            <mxPoint x="85" y="650" as="sourcePoint" />
            <mxPoint x="84.5" y="70" as="targetPoint" />
          </mxGeometry>
        </mxCell>
        <mxCell id="b5PGIRSptxfvXviJMNQf-33" value="" style="rounded=0;whiteSpace=wrap;html=1;fillColor=light-dark(#eeeeee, #f9f5f5);strokeColor=#36393d;" vertex="1" parent="1">
          <mxGeometry x="77.5" y="250" width="15" height="40" as="geometry" />
        </mxCell>
        <mxCell id="b5PGIRSptxfvXviJMNQf-34" value="" style="endArrow=none;html=1;rounded=0;dashed=1;" edge="1" parent="1" target="b5PGIRSptxfvXviJMNQf-35">
          <mxGeometry width="50" height="50" relative="1" as="geometry">
            <mxPoint x="85" y="650" as="sourcePoint" />
            <mxPoint x="85" y="290" as="targetPoint" />
          </mxGeometry>
        </mxCell>
        <mxCell id="b5PGIRSptxfvXviJMNQf-35" value="" style="rounded=0;whiteSpace=wrap;html=1;fillColor=light-dark(#eeeeee, #f9f5f5);strokeColor=#36393d;" vertex="1" parent="1">
          <mxGeometry x="77.5" y="490" width="15" height="40" as="geometry" />
        </mxCell>
        <mxCell id="b5PGIRSptxfvXviJMNQf-36" value="" style="endArrow=none;html=1;rounded=0;startArrow=classic;startFill=1;exitX=1;exitY=0.5;exitDx=0;exitDy=0;" edge="1" parent="1" source="b5PGIRSptxfvXviJMNQf-35">
          <mxGeometry width="50" height="50" relative="1" as="geometry">
            <mxPoint x="162.5" y="509.26" as="sourcePoint" />
            <mxPoint x="422.5" y="509.26" as="targetPoint" />
          </mxGeometry>
        </mxCell>
        <mxCell id="b5PGIRSptxfvXviJMNQf-37" value="Retry or request password request" style="text;strokeColor=none;align=center;fillColor=none;html=1;verticalAlign=middle;whiteSpace=wrap;rounded=0;" vertex="1" parent="1">
          <mxGeometry x="155" y="480" width="200" height="30" as="geometry" />
        </mxCell>
        <mxCell id="b5PGIRSptxfvXviJMNQf-38" value="" style="endArrow=none;html=1;rounded=0;dashed=1;fillColor=#a20025;strokeColor=#6F0000;" edge="1" parent="1" source="b5PGIRSptxfvXviJMNQf-53">
          <mxGeometry width="50" height="50" relative="1" as="geometry">
            <mxPoint x="467.75" y="1450" as="sourcePoint" />
            <mxPoint x="467.25" y="870" as="targetPoint" />
          </mxGeometry>
        </mxCell>
        <mxCell id="b5PGIRSptxfvXviJMNQf-39" value="User" style="rounded=0;whiteSpace=wrap;html=1;" vertex="1" parent="1">
          <mxGeometry x="77.5" y="840" width="90" height="30" as="geometry" />
        </mxCell>
        <mxCell id="b5PGIRSptxfvXviJMNQf-40" value="Med IQ University" style="rounded=0;whiteSpace=wrap;html=1;" vertex="1" parent="1">
          <mxGeometry x="377.5" y="840" width="180" height="30" as="geometry" />
        </mxCell>
        <mxCell id="b5PGIRSptxfvXviJMNQf-41" value="Payment Gateway" style="rounded=0;whiteSpace=wrap;html=1;" vertex="1" parent="1">
          <mxGeometry x="657.5" y="840" width="180" height="30" as="geometry" />
        </mxCell>
        <mxCell id="b5PGIRSptxfvXviJMNQf-42" value="" style="endArrow=classic;html=1;rounded=0;" edge="1" parent="1">
          <mxGeometry width="50" height="50" relative="1" as="geometry">
            <mxPoint x="130" y="916.955223880597" as="sourcePoint" />
            <mxPoint x="457.5" y="915" as="targetPoint" />
          </mxGeometry>
        </mxCell>
        <mxCell id="b5PGIRSptxfvXviJMNQf-43" value="" style="rounded=0;whiteSpace=wrap;html=1;fillColor=#a20025;fontColor=#ffffff;strokeColor=#6F0000;gradientColor=none;" vertex="1" parent="1">
          <mxGeometry x="460" y="910" width="15" height="130" as="geometry" />
        </mxCell>
        <mxCell id="b5PGIRSptxfvXviJMNQf-44" value="" style="endArrow=none;html=1;rounded=0;dashed=1;" edge="1" parent="1" source="b5PGIRSptxfvXviJMNQf-61">
          <mxGeometry width="50" height="50" relative="1" as="geometry">
            <mxPoint x="122.5" y="1450" as="sourcePoint" />
            <mxPoint x="122" y="870" as="targetPoint" />
          </mxGeometry>
        </mxCell>
        <mxCell id="b5PGIRSptxfvXviJMNQf-45" value="Open Enrollment website" style="text;strokeColor=none;align=center;fillColor=none;html=1;verticalAlign=middle;whiteSpace=wrap;rounded=0;" vertex="1" parent="1">
          <mxGeometry x="221.25" y="887" width="142.5" height="30" as="geometry" />
        </mxCell>
        <mxCell id="b5PGIRSptxfvXviJMNQf-46" value="" style="endArrow=none;html=1;rounded=0;dashed=1;fillColor=#60a917;strokeColor=#2D7600;" edge="1" parent="1" source="b5PGIRSptxfvXviJMNQf-81">
          <mxGeometry width="50" height="50" relative="1" as="geometry">
            <mxPoint x="747.5999999999999" y="1450" as="sourcePoint" />
            <mxPoint x="747.0999999999999" y="870" as="targetPoint" />
          </mxGeometry>
        </mxCell>
        <mxCell id="b5PGIRSptxfvXviJMNQf-47" value="" style="endArrow=classic;html=1;rounded=0;" edge="1" parent="1">
          <mxGeometry width="50" height="50" relative="1" as="geometry">
            <mxPoint x="475" y="1000" as="sourcePoint" />
            <mxPoint x="1030" y="1000" as="targetPoint" />
          </mxGeometry>
        </mxCell>
        <mxCell id="b5PGIRSptxfvXviJMNQf-48" value="" style="endArrow=classic;html=1;rounded=0;" edge="1" parent="1">
          <mxGeometry width="50" height="50" relative="1" as="geometry">
            <mxPoint x="120" y="1106" as="sourcePoint" />
            <mxPoint x="460" y="1106" as="targetPoint" />
          </mxGeometry>
        </mxCell>
        <mxCell id="b5PGIRSptxfvXviJMNQf-49" value="Processed to Payment" style="text;strokeColor=none;align=center;fillColor=none;html=1;verticalAlign=middle;whiteSpace=wrap;rounded=0;" vertex="1" parent="1">
          <mxGeometry x="227.5" y="1079" width="130" height="30" as="geometry" />
        </mxCell>
        <mxCell id="b5PGIRSptxfvXviJMNQf-50" value="Request Payment processing" style="text;strokeColor=none;align=center;fillColor=none;html=1;verticalAlign=middle;whiteSpace=wrap;rounded=0;" vertex="1" parent="1">
          <mxGeometry x="533.75" y="1089" width="162.5" height="30" as="geometry" />
        </mxCell>
        <mxCell id="b5PGIRSptxfvXviJMNQf-51" value="" style="endArrow=classic;html=1;rounded=0;exitX=1.052;exitY=0.88;exitDx=0;exitDy=0;exitPerimeter=0;" edge="1" parent="1">
          <mxGeometry width="50" height="50" relative="1" as="geometry">
            <mxPoint x="475" y="1114.7100000000003" as="sourcePoint" />
            <mxPoint x="736.72" y="1114.91" as="targetPoint" />
          </mxGeometry>
        </mxCell>
        <mxCell id="b5PGIRSptxfvXviJMNQf-52" value="" style="endArrow=none;html=1;rounded=0;dashed=1;fillColor=#a20025;strokeColor=#6F0000;" edge="1" parent="1" target="b5PGIRSptxfvXviJMNQf-53">
          <mxGeometry width="50" height="50" relative="1" as="geometry">
            <mxPoint x="467.5" y="1190" as="sourcePoint" />
            <mxPoint x="467.25" y="870" as="targetPoint" />
          </mxGeometry>
        </mxCell>
        <mxCell id="b5PGIRSptxfvXviJMNQf-53" value="" style="rounded=0;whiteSpace=wrap;html=1;fillColor=#a20025;fontColor=#ffffff;strokeColor=#6F0000;gradientColor=none;" vertex="1" parent="1">
          <mxGeometry x="460" y="1080" width="15" height="170" as="geometry" />
        </mxCell>
        <mxCell id="b5PGIRSptxfvXviJMNQf-54" value="" style="endArrow=none;html=1;rounded=0;dashed=1;fillColor=#a20025;strokeColor=#6F0000;" edge="1" parent="1" target="b5PGIRSptxfvXviJMNQf-53">
          <mxGeometry width="50" height="50" relative="1" as="geometry">
            <mxPoint x="467.75" y="1450" as="sourcePoint" />
            <mxPoint x="467.5388888888888" y="1260" as="targetPoint" />
          </mxGeometry>
        </mxCell>
        <mxCell id="b5PGIRSptxfvXviJMNQf-55" value="" style="endArrow=none;html=1;rounded=0;startArrow=classic;startFill=1;exitX=1.189;exitY=0.166;exitDx=0;exitDy=0;exitPerimeter=0;" edge="1" parent="1">
          <mxGeometry width="50" height="50" relative="1" as="geometry">
            <mxPoint x="475" y="1145" as="sourcePoint" />
            <mxPoint x="738.5" y="1145" as="targetPoint" />
          </mxGeometry>
        </mxCell>
        <mxCell id="b5PGIRSptxfvXviJMNQf-56" value="Payment Confirmation" style="text;strokeColor=none;align=center;fillColor=none;html=1;verticalAlign=middle;whiteSpace=wrap;rounded=0;" vertex="1" parent="1">
          <mxGeometry x="550" y="1115" width="130" height="30" as="geometry" />
        </mxCell>
        <mxCell id="b5PGIRSptxfvXviJMNQf-57" value="" style="rounded=0;whiteSpace=wrap;html=1;fillColor=#a20025;fontColor=#ffffff;strokeColor=#6F0000;gradientColor=none;" vertex="1" parent="1">
          <mxGeometry x="460" y="1300" width="15" height="100" as="geometry" />
        </mxCell>
        <mxCell id="b5PGIRSptxfvXviJMNQf-58" value="" style="endArrow=classic;html=1;rounded=0;entryX=0.217;entryY=0.455;entryDx=0;entryDy=0;entryPerimeter=0;" edge="1" parent="1" target="b5PGIRSptxfvXviJMNQf-59">
          <mxGeometry width="50" height="50" relative="1" as="geometry">
            <mxPoint x="122.5" y="929.5" as="sourcePoint" />
            <mxPoint x="463.5" y="928" as="targetPoint" />
          </mxGeometry>
        </mxCell>
        <mxCell id="b5PGIRSptxfvXviJMNQf-59" value="" style="rounded=0;whiteSpace=wrap;html=1;fillColor=light-dark(#eeeeee, #f9f5f5);strokeColor=#36393d;" vertex="1" parent="1">
          <mxGeometry x="115" y="910" width="15" height="110" as="geometry" />
        </mxCell>
        <mxCell id="b5PGIRSptxfvXviJMNQf-60" value="" style="endArrow=none;html=1;rounded=0;dashed=1;" edge="1" parent="1" source="b5PGIRSptxfvXviJMNQf-63" target="b5PGIRSptxfvXviJMNQf-61">
          <mxGeometry width="50" height="50" relative="1" as="geometry">
            <mxPoint x="122.5" y="1450" as="sourcePoint" />
            <mxPoint x="122" y="870" as="targetPoint" />
          </mxGeometry>
        </mxCell>
        <mxCell id="b5PGIRSptxfvXviJMNQf-61" value="" style="rounded=0;whiteSpace=wrap;html=1;fillColor=light-dark(#eeeeee, #f9f5f5);strokeColor=#36393d;" vertex="1" parent="1">
          <mxGeometry x="115" y="1079" width="15" height="171" as="geometry" />
        </mxCell>
        <mxCell id="b5PGIRSptxfvXviJMNQf-62" value="" style="endArrow=none;html=1;rounded=0;dashed=1;" edge="1" parent="1" target="b5PGIRSptxfvXviJMNQf-63">
          <mxGeometry width="50" height="50" relative="1" as="geometry">
            <mxPoint x="122.5" y="1450" as="sourcePoint" />
            <mxPoint x="122.5" y="1090" as="targetPoint" />
          </mxGeometry>
        </mxCell>
        <mxCell id="b5PGIRSptxfvXviJMNQf-63" value="" style="rounded=0;whiteSpace=wrap;html=1;fillColor=light-dark(#eeeeee, #f9f5f5);strokeColor=#36393d;" vertex="1" parent="1">
          <mxGeometry x="115" y="1290" width="15" height="110" as="geometry" />
        </mxCell>
        <mxCell id="b5PGIRSptxfvXviJMNQf-64" value="" style="endArrow=none;html=1;rounded=0;startArrow=classic;startFill=1;exitX=0.897;exitY=0.178;exitDx=0;exitDy=0;exitPerimeter=0;" edge="1" parent="1" source="b5PGIRSptxfvXviJMNQf-63">
          <mxGeometry width="50" height="50" relative="1" as="geometry">
            <mxPoint x="200" y="1309.26" as="sourcePoint" />
            <mxPoint x="460" y="1309.26" as="targetPoint" />
          </mxGeometry>
        </mxCell>
        <mxCell id="b5PGIRSptxfvXviJMNQf-65" value="Enrollment failed" style="text;strokeColor=none;align=center;fillColor=none;html=1;verticalAlign=middle;whiteSpace=wrap;rounded=0;" vertex="1" parent="1">
          <mxGeometry x="192.5" y="1280" width="200" height="30" as="geometry" />
        </mxCell>
        <mxCell id="b5PGIRSptxfvXviJMNQf-66" value="" style="endArrow=none;html=1;rounded=0;startFill=1;startArrow=classic;" edge="1" parent="1">
          <mxGeometry width="50" height="50" relative="1" as="geometry">
            <mxPoint x="132.5" y="949.955223880597" as="sourcePoint" />
            <mxPoint x="460" y="948" as="targetPoint" />
          </mxGeometry>
        </mxCell>
        <mxCell id="b5PGIRSptxfvXviJMNQf-67" value="Display courses" style="text;strokeColor=none;align=center;fillColor=none;html=1;verticalAlign=middle;whiteSpace=wrap;rounded=0;" vertex="1" parent="1">
          <mxGeometry x="221.25" y="920" width="142.5" height="30" as="geometry" />
        </mxCell>
        <mxCell id="b5PGIRSptxfvXviJMNQf-68" value="" style="endArrow=classic;html=1;rounded=0;" edge="1" parent="1">
          <mxGeometry width="50" height="50" relative="1" as="geometry">
            <mxPoint x="132.5" y="979.955223880597" as="sourcePoint" />
            <mxPoint x="460" y="978" as="targetPoint" />
          </mxGeometry>
        </mxCell>
        <mxCell id="b5PGIRSptxfvXviJMNQf-69" value="Select Courses" style="text;strokeColor=none;align=center;fillColor=none;html=1;verticalAlign=middle;whiteSpace=wrap;rounded=0;" vertex="1" parent="1">
          <mxGeometry x="221.25" y="950" width="142.5" height="30" as="geometry" />
        </mxCell>
        <mxCell id="b5PGIRSptxfvXviJMNQf-70" value="" style="endArrow=none;html=1;rounded=0;startFill=1;startArrow=classic;exitX=0.911;exitY=0.926;exitDx=0;exitDy=0;exitPerimeter=0;" edge="1" parent="1" source="b5PGIRSptxfvXviJMNQf-43">
          <mxGeometry width="50" height="50" relative="1" as="geometry">
            <mxPoint x="705" y="1029.955223880597" as="sourcePoint" />
            <mxPoint x="1032.5" y="1028" as="targetPoint" />
          </mxGeometry>
        </mxCell>
        <mxCell id="b5PGIRSptxfvXviJMNQf-71" value="Return eligibility status" style="text;strokeColor=none;align=center;fillColor=none;html=1;verticalAlign=middle;whiteSpace=wrap;rounded=0;" vertex="1" parent="1">
          <mxGeometry x="629.37" y="1000" width="236.25" height="30" as="geometry" />
        </mxCell>
        <mxCell id="b5PGIRSptxfvXviJMNQf-72" value="Database" style="rounded=0;whiteSpace=wrap;html=1;" vertex="1" parent="1">
          <mxGeometry x="860" y="40" width="180" height="30" as="geometry" />
        </mxCell>
        <mxCell id="b5PGIRSptxfvXviJMNQf-73" value="" style="endArrow=none;html=1;rounded=0;dashed=1;fillColor=#ffcc99;strokeColor=#36393d;" edge="1" parent="1">
          <mxGeometry width="50" height="50" relative="1" as="geometry">
            <mxPoint x="950.1" y="650" as="sourcePoint" />
            <mxPoint x="949.6" y="70" as="targetPoint" />
          </mxGeometry>
        </mxCell>
        <mxCell id="b5PGIRSptxfvXviJMNQf-74" value="" style="rounded=0;whiteSpace=wrap;html=1;fillColor=#ffcc99;strokeColor=#36393d;" vertex="1" parent="1">
          <mxGeometry x="942.5" y="270" width="15" height="100" as="geometry" />
        </mxCell>
        <mxCell id="b5PGIRSptxfvXviJMNQf-75" value="" style="endArrow=none;html=1;rounded=0;dashed=1;fillColor=#a20025;strokeColor=#6F0000;" edge="1" parent="1" target="b5PGIRSptxfvXviJMNQf-76">
          <mxGeometry width="50" height="50" relative="1" as="geometry">
            <mxPoint x="430" y="650.888916015625" as="sourcePoint" />
            <mxPoint x="429.75" y="70" as="targetPoint" />
          </mxGeometry>
        </mxCell>
        <mxCell id="b5PGIRSptxfvXviJMNQf-76" value="" style="rounded=0;whiteSpace=wrap;html=1;fillColor=#a20025;fontColor=#ffffff;strokeColor=#6F0000;gradientColor=none;" vertex="1" parent="1">
          <mxGeometry x="422.5" y="480" width="15" height="60" as="geometry" />
        </mxCell>
        <mxCell id="b5PGIRSptxfvXviJMNQf-77" value="University Database" style="rounded=0;whiteSpace=wrap;html=1;" vertex="1" parent="1">
          <mxGeometry x="950" y="840" width="180" height="30" as="geometry" />
        </mxCell>
        <mxCell id="b5PGIRSptxfvXviJMNQf-78" value="" style="endArrow=none;html=1;rounded=0;dashed=1;fillColor=#ffcc99;strokeColor=#36393d;" edge="1" parent="1">
          <mxGeometry width="50" height="50" relative="1" as="geometry">
            <mxPoint x="1040.1" y="1450" as="sourcePoint" />
            <mxPoint x="1039.6" y="870" as="targetPoint" />
          </mxGeometry>
        </mxCell>
        <mxCell id="b5PGIRSptxfvXviJMNQf-79" value="" style="rounded=0;whiteSpace=wrap;html=1;fillColor=#ffcc99;strokeColor=#36393d;" vertex="1" parent="1">
          <mxGeometry x="1032.5" y="960" width="15" height="370" as="geometry" />
        </mxCell>
        <mxCell id="b5PGIRSptxfvXviJMNQf-80" value="" style="endArrow=none;html=1;rounded=0;dashed=1;fillColor=#60a917;strokeColor=#2D7600;" edge="1" parent="1" target="b5PGIRSptxfvXviJMNQf-81">
          <mxGeometry width="50" height="50" relative="1" as="geometry">
            <mxPoint x="747.5999999999999" y="1450" as="sourcePoint" />
            <mxPoint x="747.0999999999999" y="870" as="targetPoint" />
          </mxGeometry>
        </mxCell>
        <mxCell id="b5PGIRSptxfvXviJMNQf-81" value="" style="rounded=0;whiteSpace=wrap;html=1;fillColor=#60a917;fontColor=#ffffff;strokeColor=#2D7600;" vertex="1" parent="1">
          <mxGeometry x="740" y="1095" width="15" height="70" as="geometry" />
        </mxCell>
        <mxCell id="b5PGIRSptxfvXviJMNQf-82" value="Confirm course availability and eligibility check" style="text;strokeColor=none;align=center;fillColor=none;html=1;verticalAlign=middle;whiteSpace=wrap;rounded=0;" vertex="1" parent="1">
          <mxGeometry x="610" y="970" width="278.75" height="30" as="geometry" />
        </mxCell>
        <mxCell id="b5PGIRSptxfvXviJMNQf-83" value="Store enrollment details" style="text;strokeColor=none;align=center;fillColor=none;html=1;verticalAlign=middle;whiteSpace=wrap;rounded=0;" vertex="1" parent="1">
          <mxGeometry x="533.75" y="1165" width="162.5" height="30" as="geometry" />
        </mxCell>
        <mxCell id="b5PGIRSptxfvXviJMNQf-84" value="" style="endArrow=classic;html=1;rounded=0;exitX=1.052;exitY=0.88;exitDx=0;exitDy=0;exitPerimeter=0;" edge="1" parent="1">
          <mxGeometry width="50" height="50" relative="1" as="geometry">
            <mxPoint x="475" y="1190.7100000000003" as="sourcePoint" />
            <mxPoint x="1030" y="1191" as="targetPoint" />
          </mxGeometry>
        </mxCell>
        <mxCell id="b5PGIRSptxfvXviJMNQf-85" value="Confirm enrollment storage" style="text;strokeColor=none;align=center;fillColor=none;html=1;verticalAlign=middle;whiteSpace=wrap;rounded=0;" vertex="1" parent="1">
          <mxGeometry x="533.75" y="1195" width="162.5" height="30" as="geometry" />
        </mxCell>
        <mxCell id="b5PGIRSptxfvXviJMNQf-86" value="" style="endArrow=none;html=1;rounded=0;exitX=1.052;exitY=0.88;exitDx=0;exitDy=0;exitPerimeter=0;startArrow=classic;startFill=1;" edge="1" parent="1">
          <mxGeometry width="50" height="50" relative="1" as="geometry">
            <mxPoint x="475" y="1220.7100000000003" as="sourcePoint" />
            <mxPoint x="1030" y="1221" as="targetPoint" />
          </mxGeometry>
        </mxCell>
        <mxCell id="b5PGIRSptxfvXviJMNQf-87" value="" style="endArrow=none;html=1;rounded=0;startArrow=classic;startFill=1;" edge="1" parent="1">
          <mxGeometry width="50" height="50" relative="1" as="geometry">
            <mxPoint x="130" y="1239" as="sourcePoint" />
            <mxPoint x="460" y="1239" as="targetPoint" />
          </mxGeometry>
        </mxCell>
        <mxCell id="b5PGIRSptxfvXviJMNQf-88" value="Enrollment successful" style="text;strokeColor=none;align=center;fillColor=none;html=1;verticalAlign=middle;whiteSpace=wrap;rounded=0;" vertex="1" parent="1">
          <mxGeometry x="230" y="1208.2" width="130" height="30" as="geometry" />
        </mxCell>
        <mxCell id="b5PGIRSptxfvXviJMNQf-89" value="" style="endArrow=classic;html=1;rounded=0;startArrow=none;startFill=0;exitX=1;exitY=0.5;exitDx=0;exitDy=0;endFill=1;" edge="1" parent="1">
          <mxGeometry width="50" height="50" relative="1" as="geometry">
            <mxPoint x="132.5" y="1350" as="sourcePoint" />
            <mxPoint x="460" y="1349" as="targetPoint" />
          </mxGeometry>
        </mxCell>
        <mxCell id="b5PGIRSptxfvXviJMNQf-90" value="Retry or select another course" style="text;strokeColor=none;align=center;fillColor=none;html=1;verticalAlign=middle;whiteSpace=wrap;rounded=0;" vertex="1" parent="1">
          <mxGeometry x="195" y="1320" width="200" height="30" as="geometry" />
        </mxCell>
        <mxCell id="b5PGIRSptxfvXviJMNQf-91" value="" style="endArrow=none;html=1;rounded=0;startArrow=classic;startFill=1;exitX=1;exitY=0.5;exitDx=0;exitDy=0;" edge="1" parent="1">
          <mxGeometry width="50" height="50" relative="1" as="geometry">
            <mxPoint x="132.5" y="1390" as="sourcePoint" />
            <mxPoint x="460" y="1389" as="targetPoint" />
          </mxGeometry>
        </mxCell>
        <mxCell id="b5PGIRSptxfvXviJMNQf-92" value="Provide alternative course options" style="text;strokeColor=none;align=center;fillColor=none;html=1;verticalAlign=middle;whiteSpace=wrap;rounded=0;" vertex="1" parent="1">
          <mxGeometry x="195" y="1360" width="200" height="30" as="geometry" />
        </mxCell>
        <mxCell id="b5PGIRSptxfvXviJMNQf-93" value="Course enrollment successful" style="text;strokeColor=none;align=center;fillColor=none;html=1;verticalAlign=middle;whiteSpace=wrap;rounded=0;" vertex="1" parent="1">
          <mxGeometry x="130" y="1044" width="170" height="30" as="geometry" />
        </mxCell>
        <mxCell id="b5PGIRSptxfvXviJMNQf-94" value="" style="endArrow=none;html=1;rounded=0;exitX=0.002;exitY=0.572;exitDx=0;exitDy=0;exitPerimeter=0;entryX=1;entryY=0.579;entryDx=0;entryDy=0;entryPerimeter=0;dashed=1;" edge="1" parent="1">
          <mxGeometry width="50" height="50" relative="1" as="geometry">
            <mxPoint x="82.03999999999996" y="1258.36" as="sourcePoint" />
            <mxPoint x="1100" y="1261.02" as="targetPoint" />
          </mxGeometry>
        </mxCell>
        <mxCell id="b5PGIRSptxfvXviJMNQf-95" value="Enrollment failure" style="text;strokeColor=none;align=center;fillColor=none;html=1;verticalAlign=middle;whiteSpace=wrap;rounded=0;" vertex="1" parent="1">
          <mxGeometry x="98" y="1253" width="170" height="30" as="geometry" />
        </mxCell>
        <mxCell id="b5PGIRSptxfvXviJMNQf-96" value="Alt" style="rounded=0;whiteSpace=wrap;html=1;" vertex="1" parent="1">
          <mxGeometry x="80" y="1050" width="30" height="20" as="geometry" />
        </mxCell>
      </root>
    </mxGraphModel>
  </diagram>
</mxfile>
